<?xml version="1.0" encoding="UTF-8" standalone="no"?>
<!-- Created with Inkscape (http://www.inkscape.org/) -->

<svg
   xmlns:dc="http://purl.org/dc/elements/1.1/"
   xmlns:cc="http://creativecommons.org/ns#"
   xmlns:rdf="http://www.w3.org/1999/02/22-rdf-syntax-ns#"
   xmlns:svg="http://www.w3.org/2000/svg"
   xmlns="http://www.w3.org/2000/svg"
   xmlns:sodipodi="http://sodipodi.sourceforge.net/DTD/sodipodi-0.dtd"
   xmlns:inkscape="http://www.inkscape.org/namespaces/inkscape"
   width="300"
   height="290"
   viewBox="0 0 79.374998 76.729172"
   version="1.1"
   id="svg4059"
   inkscape:version="0.92.2 (5c3e80d, 2017-08-06)"
   sodipodi:docname="Reinforcement_learning_diagram_PAL.svg">
  <defs
     id="defs4053">
    <marker
       inkscape:stockid="Arrow2Lend"
       orient="auto"
       refY="0.0"
       refX="0.0"
       id="marker1232"
       style="overflow:visible;"
       inkscape:isstock="true">
      <path
         id="path990"
         style="fill-rule:evenodd;stroke-width:0.625;stroke-linejoin:round;stroke:#000000;stroke-opacity:1;fill:#000000;fill-opacity:1"
         d="M 8.7185878,4.0337352 L -2.2072895,0.016013256 L 8.7185884,-4.0017078 C 6.9730900,-1.6296469 6.9831476,1.6157441 8.7185878,4.0337352 z "
         transform="scale(1.1) rotate(180) translate(1,0)" />
    </marker>
    <marker
       inkscape:isstock="true"
       style="overflow:visible;"
       id="marker7812"
       refX="0.0"
       refY="0.0"
       orient="auto"
       inkscape:stockid="Arrow2Lend">
      <path
         transform="scale(1.1) rotate(180) translate(1,0)"
         d="M 8.7185878,4.0337352 L -2.2072895,0.016013256 L 8.7185884,-4.0017078 C 6.9730900,-1.6296469 6.9831476,1.6157441 8.7185878,4.0337352 z "
         style="fill-rule:evenodd;stroke-width:0.625;stroke-linejoin:round;stroke:#000000;stroke-opacity:1;fill:#000000;fill-opacity:1"
         id="path7810" />
    </marker>
    <marker
       inkscape:stockid="Arrow2Lend"
       orient="auto"
       refY="0.0"
       refX="0.0"
       id="marker4841"
       style="overflow:visible;"
       inkscape:isstock="true">
      <path
         id="path4839"
         style="fill-rule:evenodd;stroke-width:0.625;stroke-linejoin:round;stroke:#000000;stroke-opacity:1;fill:#000000;fill-opacity:1"
         d="M 8.7185878,4.0337352 L -2.2072895,0.016013256 L 8.7185884,-4.0017078 C 6.9730900,-1.6296469 6.9831476,1.6157441 8.7185878,4.0337352 z "
         transform="scale(1.1) rotate(180) translate(1,0)" />
    </marker>
    <marker
       inkscape:stockid="Arrow2Lstart"
       orient="auto"
       refY="0.0"
       refX="0.0"
       id="Arrow2Lstart"
       style="overflow:visible"
       inkscape:isstock="true">
      <path
         id="path8846"
         style="fill-rule:evenodd;stroke-width:0.625;stroke-linejoin:round;stroke:#000000;stroke-opacity:1;fill:#000000;fill-opacity:1"
         d="M 8.7185878,4.0337352 L -2.2072895,0.016013256 L 8.7185884,-4.0017078 C 6.9730900,-1.6296469 6.9831476,1.6157441 8.7185878,4.0337352 z "
         transform="scale(1.1) translate(1,0)" />
    </marker>
    <marker
       inkscape:stockid="Arrow1Lstart"
       orient="auto"
       refY="0.0"
       refX="0.0"
       id="marker13081"
       style="overflow:visible"
       inkscape:isstock="true">
      <path
         id="path13079"
         d="M 0.0,0.0 L 5.0,-5.0 L -12.5,0.0 L 5.0,5.0 L 0.0,0.0 z "
         style="fill-rule:evenodd;stroke:#000000;stroke-width:1pt;stroke-opacity:1;fill:#000000;fill-opacity:1"
         transform="scale(0.8) translate(12.5,0)" />
    </marker>
    <marker
       inkscape:stockid="Arrow1Lstart"
       orient="auto"
       refY="0.0"
       refX="0.0"
       id="Arrow1Lstart"
       style="overflow:visible"
       inkscape:isstock="true">
      <path
         id="path8828"
         d="M 0.0,0.0 L 5.0,-5.0 L -12.5,0.0 L 5.0,5.0 L 0.0,0.0 z "
         style="fill-rule:evenodd;stroke:#000000;stroke-width:1pt;stroke-opacity:1;fill:#000000;fill-opacity:1"
         transform="scale(0.8) translate(12.5,0)" />
    </marker>
    <marker
       inkscape:isstock="true"
       style="overflow:visible;"
       id="marker12943"
       refX="0.0"
       refY="0.0"
       orient="auto"
       inkscape:stockid="Arrow2Lend">
      <path
         transform="scale(1.1) rotate(180) translate(1,0)"
         d="M 8.7185878,4.0337352 L -2.2072895,0.016013256 L 8.7185884,-4.0017078 C 6.9730900,-1.6296469 6.9831476,1.6157441 8.7185878,4.0337352 z "
         style="fill-rule:evenodd;stroke-width:0.625;stroke-linejoin:round;stroke:#000000;stroke-opacity:1;fill:#000000;fill-opacity:1"
         id="path12941" />
    </marker>
    <marker
       inkscape:stockid="Arrow2Lend"
       orient="auto"
       refY="0.0"
       refX="0.0"
       id="marker12885"
       style="overflow:visible;"
       inkscape:isstock="true"
       inkscape:collect="always">
      <path
         id="path12883"
         style="fill-rule:evenodd;stroke-width:0.625;stroke-linejoin:round;stroke:#000000;stroke-opacity:1;fill:#000000;fill-opacity:1"
         d="M 8.7185878,4.0337352 L -2.2072895,0.016013256 L 8.7185884,-4.0017078 C 6.9730900,-1.6296469 6.9831476,1.6157441 8.7185878,4.0337352 z "
         transform="scale(1.1) rotate(180) translate(1,0)" />
    </marker>
    <marker
       inkscape:stockid="Arrow2Lend"
       orient="auto"
       refY="0.0"
       refX="0.0"
       id="Arrow2Lend"
       style="overflow:visible;"
       inkscape:isstock="true"
       inkscape:collect="always">
      <path
         id="path8849"
         style="fill-rule:evenodd;stroke-width:0.625;stroke-linejoin:round;stroke:#000000;stroke-opacity:1;fill:#000000;fill-opacity:1"
         d="M 8.7185878,4.0337352 L -2.2072895,0.016013256 L 8.7185884,-4.0017078 C 6.9730900,-1.6296469 6.9831476,1.6157441 8.7185878,4.0337352 z "
         transform="scale(1.1) rotate(180) translate(1,0)" />
    </marker>
    <marker
       inkscape:stockid="Arrow1Lend"
       orient="auto"
       refY="0.0"
       refX="0.0"
       id="marker9112"
       style="overflow:visible;"
       inkscape:isstock="true">
      <path
         id="path9110"
         d="M 0.0,0.0 L 5.0,-5.0 L -12.5,0.0 L 5.0,5.0 L 0.0,0.0 z "
         style="fill-rule:evenodd;stroke:#000000;stroke-width:1pt;stroke-opacity:1;fill:#000000;fill-opacity:1"
         transform="scale(0.8) rotate(180) translate(12.5,0)" />
    </marker>
    <marker
       inkscape:stockid="Arrow1Lend"
       orient="auto"
       refY="0.0"
       refX="0.0"
       id="Arrow1Lend"
       style="overflow:visible;"
       inkscape:isstock="true">
      <path
         id="path8831"
         d="M 0.0,0.0 L 5.0,-5.0 L -12.5,0.0 L 5.0,5.0 L 0.0,0.0 z "
         style="fill-rule:evenodd;stroke:#000000;stroke-width:1pt;stroke-opacity:1;fill:#000000;fill-opacity:1"
         transform="scale(0.8) rotate(180) translate(12.5,0)" />
    </marker>
    <style
       id="style9277"
       type="text/css">
    .str1 {stroke:black;stroke-width:42.33}
    .str0 {stroke:black;stroke-width:42.33;stroke-linecap:round;stroke-linejoin:round}
    .fil2 {fill:none}
    .fil1 {fill:#666666}
    .fil0 {fill:url(#id0)}
  </style>
    <linearGradient
       x1="2559.7"
       y1="3043.4"
       x2="1639.5"
       gradientUnits="userSpaceOnUse"
       y2="2329.5"
       id="id0"
       gradientTransform="translate(4602.8341,-3302.9596)">
      <stop
         id="stop9279"
         offset="0"
         style="stop-color:#CCCCCC" />
      <stop
         id="stop9281"
         offset="1"
         style="stop-color:white" />
    </linearGradient>
    <marker
       inkscape:isstock="true"
       style="overflow:visible"
       id="marker9358-0"
       refX="0"
       refY="0"
       orient="auto"
       inkscape:stockid="Arrow2Lend">
      <path
         inkscape:connector-curvature="0"
         transform="matrix(-1.1,0,0,-1.1,-1.1,0)"
         d="M 8.7185878,4.0337352 -2.2072895,0.01601326 8.7185884,-4.0017078 c -1.7454984,2.3720609 -1.7354408,5.6174519 -6e-7,8.035443 z"
         style="fill:#000000;fill-opacity:1;fill-rule:evenodd;stroke:#000000;stroke-width:0.625;stroke-linejoin:round;stroke-opacity:1"
         id="path9356-6" />
    </marker>
    <marker
       inkscape:stockid="Arrow2Lstart"
       orient="auto"
       refY="0"
       refX="0"
       id="Arrow2Lstart-9"
       style="overflow:visible"
       inkscape:isstock="true">
      <path
         inkscape:connector-curvature="0"
         id="path8846-2"
         style="fill:#000000;fill-opacity:1;fill-rule:evenodd;stroke:#000000;stroke-width:0.625;stroke-linejoin:round;stroke-opacity:1"
         d="M 8.7185878,4.0337352 -2.2072895,0.01601326 8.7185884,-4.0017078 c -1.7454984,2.3720609 -1.7354408,5.6174519 -6e-7,8.035443 z"
         transform="matrix(1.1,0,0,1.1,1.1,0)" />
    </marker>
    <marker
       inkscape:stockid="Arrow2Lend"
       orient="auto"
       refY="0"
       refX="0"
       id="Arrow2Lend-0"
       style="overflow:visible"
       inkscape:isstock="true"
       inkscape:collect="always">
      <path
         inkscape:connector-curvature="0"
         id="path8849-1"
         style="fill:#000000;fill-opacity:1;fill-rule:evenodd;stroke:#000000;stroke-width:0.625;stroke-linejoin:round;stroke-opacity:1"
         d="M 8.7185878,4.0337352 -2.2072895,0.01601326 8.7185884,-4.0017078 c -1.7454984,2.3720609 -1.7354408,5.6174519 -6e-7,8.035443 z"
         transform="matrix(-1.1,0,0,-1.1,-1.1,0)" />
    </marker>
    <marker
       inkscape:stockid="Arrow2Lend"
       orient="auto"
       refY="0"
       refX="0"
       id="Arrow2Lend-0-0"
       style="overflow:visible"
       inkscape:isstock="true"
       inkscape:collect="always">
      <path
         inkscape:connector-curvature="0"
         id="path8849-1-6"
         style="fill:#000000;fill-opacity:1;fill-rule:evenodd;stroke:#000000;stroke-width:0.625;stroke-linejoin:round;stroke-opacity:1"
         d="M 8.7185878,4.0337352 -2.2072895,0.01601326 8.7185884,-4.0017078 c -1.7454984,2.3720609 -1.7354408,5.6174519 -6e-7,8.035443 z"
         transform="matrix(-1.1,0,0,-1.1,-1.1,0)" />
    </marker>
    <marker
       inkscape:stockid="Arrow2Lstart"
       orient="auto"
       refY="0"
       refX="0"
       id="Arrow2Lstart-6"
       style="overflow:visible"
       inkscape:isstock="true">
      <path
         inkscape:connector-curvature="0"
         id="path8846-6"
         style="fill:#000000;fill-opacity:1;fill-rule:evenodd;stroke:#000000;stroke-width:0.625;stroke-linejoin:round;stroke-opacity:1"
         d="M 8.7185878,4.0337352 -2.2072895,0.01601326 8.7185884,-4.0017078 c -1.7454984,2.3720609 -1.7354408,5.6174519 -6e-7,8.035443 z"
         transform="matrix(1.1,0,0,1.1,1.1,0)" />
    </marker>
    <marker
       inkscape:stockid="Arrow2Lstart"
       orient="auto"
       refY="0"
       refX="0"
       id="Arrow2Lstart-6-1"
       style="overflow:visible"
       inkscape:isstock="true">
      <path
         inkscape:connector-curvature="0"
         id="path8846-6-9"
         style="fill:#000000;fill-opacity:1;fill-rule:evenodd;stroke:#000000;stroke-width:0.625;stroke-linejoin:round;stroke-opacity:1"
         d="M 8.7185878,4.0337352 -2.2072895,0.01601326 8.7185884,-4.0017078 c -1.7454984,2.3720609 -1.7354408,5.6174519 -6e-7,8.035443 z"
         transform="matrix(1.1,0,0,1.1,1.1,0)" />
    </marker>
    <marker
       inkscape:stockid="Arrow2Lend"
       orient="auto"
       refY="0"
       refX="0"
       id="marker12885-3"
       style="overflow:visible"
       inkscape:isstock="true"
       inkscape:collect="always">
      <path
         inkscape:connector-curvature="0"
         id="path12883-6"
         style="fill:#000000;fill-opacity:1;fill-rule:evenodd;stroke:#000000;stroke-width:0.625;stroke-linejoin:round;stroke-opacity:1"
         d="M 8.7185878,4.0337352 -2.2072895,0.01601326 8.7185884,-4.0017078 c -1.7454984,2.3720609 -1.7354408,5.6174519 -6e-7,8.035443 z"
         transform="matrix(-1.1,0,0,-1.1,-1.1,0)" />
    </marker>
    <marker
       inkscape:stockid="Arrow2Lend"
       orient="auto"
       refY="0"
       refX="0"
       id="marker12885-3-5"
       style="overflow:visible"
       inkscape:isstock="true"
       inkscape:collect="always">
      <path
         inkscape:connector-curvature="0"
         id="path12883-6-3"
         style="fill:#000000;fill-opacity:1;fill-rule:evenodd;stroke:#000000;stroke-width:0.625;stroke-linejoin:round;stroke-opacity:1"
         d="M 8.7185878,4.0337352 -2.2072895,0.01601326 8.7185884,-4.0017078 c -1.7454984,2.3720609 -1.7354408,5.6174519 -6e-7,8.035443 z"
         transform="matrix(-1.1,0,0,-1.1,-1.1,0)" />
    </marker>
    <marker
       inkscape:stockid="Arrow2Lstart"
       orient="auto"
       refY="0"
       refX="0"
       id="Arrow2Lstart-62"
       style="overflow:visible"
       inkscape:isstock="true">
      <path
         inkscape:connector-curvature="0"
         id="path8846-9"
         style="fill:#000000;fill-opacity:1;fill-rule:evenodd;stroke:#000000;stroke-width:0.625;stroke-linejoin:round;stroke-opacity:1"
         d="M 8.7185878,4.0337352 -2.2072895,0.01601326 8.7185884,-4.0017078 c -1.7454984,2.3720609 -1.7354408,5.6174519 -6e-7,8.035443 z"
         transform="matrix(1.1,0,0,1.1,1.1,0)" />
    </marker>
    <marker
       inkscape:stockid="Arrow2Lstart"
       orient="auto"
       refY="0"
       refX="0"
       id="Arrow2Lstart-2"
       style="overflow:visible"
       inkscape:isstock="true">
      <path
         inkscape:connector-curvature="0"
         id="path8846-7"
         style="fill:#000000;fill-opacity:1;fill-rule:evenodd;stroke:#000000;stroke-width:0.625;stroke-linejoin:round;stroke-opacity:1"
         d="M 8.7185878,4.0337352 -2.2072895,0.01601326 8.7185884,-4.0017078 c -1.7454984,2.3720609 -1.7354408,5.6174519 -6e-7,8.035443 z"
         transform="matrix(1.1,0,0,1.1,1.1,0)" />
    </marker>
    <marker
       inkscape:stockid="Arrow2Lstart"
       orient="auto"
       refY="0"
       refX="0"
       id="Arrow2Lstart-2-9"
       style="overflow:visible"
       inkscape:isstock="true">
      <path
         inkscape:connector-curvature="0"
         id="path8846-7-3"
         style="fill:#000000;fill-opacity:1;fill-rule:evenodd;stroke:#000000;stroke-width:0.625;stroke-linejoin:round;stroke-opacity:1"
         d="M 8.7185878,4.0337352 -2.2072895,0.01601326 8.7185884,-4.0017078 c -1.7454984,2.3720609 -1.7354408,5.6174519 -6e-7,8.035443 z"
         transform="matrix(1.1,0,0,1.1,1.1,0)" />
    </marker>
    <marker
       inkscape:stockid="Arrow2Lstart"
       orient="auto"
       refY="0"
       refX="0"
       id="Arrow2Lstart-2-9-0"
       style="overflow:visible"
       inkscape:isstock="true">
      <path
         inkscape:connector-curvature="0"
         id="path8846-7-3-6"
         style="fill:#000000;fill-opacity:1;fill-rule:evenodd;stroke:#000000;stroke-width:0.625;stroke-linejoin:round;stroke-opacity:1"
         d="M 8.7185878,4.0337352 -2.2072895,0.01601326 8.7185884,-4.0017078 c -1.7454984,2.3720609 -1.7354408,5.6174519 -6e-7,8.035443 z"
         transform="matrix(1.1,0,0,1.1,1.1,0)" />
    </marker>
  </defs>
  <sodipodi:namedview
     id="base"
     pagecolor="#ffffff"
     bordercolor="#666666"
     borderopacity="1.0"
     inkscape:pageopacity="0.0"
     inkscape:pageshadow="2"
     inkscape:zoom="2.9488067"
     inkscape:cx="156.09058"
     inkscape:cy="144.90258"
     inkscape:document-units="mm"
     inkscape:current-layer="layer1"
     showgrid="false"
     units="px"
     inkscape:window-width="1920"
     inkscape:window-height="1136"
     inkscape:window-x="0"
     inkscape:window-y="27"
     inkscape:window-maximized="1" />
  <metadata
     id="metadata4056">
    <rdf:RDF>
      <cc:Work
         rdf:about="">
        <dc:format>image/svg+xml</dc:format>
        <dc:type
           rdf:resource="http://purl.org/dc/dcmitype/StillImage" />
        <dc:title />
      </cc:Work>
    </rdf:RDF>
  </metadata>
  <g
     inkscape:label="Layer 1"
     inkscape:groupmode="layer"
     id="layer1"
     transform="translate(0,-220.27078)">
    <g
       style="fill:none;stroke:none;stroke-linecap:square;stroke-miterlimit:10"
       id="g4307"
       transform="matrix(0.03542353,0,0,0.03542353,35.419219,272.13558)">
      <g
         id="g4263"
         clip-path="url(#p.0)">
        <path
           id="path4197"
           d="M 0,0 H 522.8399 V 473.18372 H 0 Z"
           inkscape:connector-curvature="0"
           style="fill:#000000;fill-opacity:0;fill-rule:nonzero" />
        <path
           id="path4199"
           d="m 228.13649,346.40683 c -0.22354,11.86569 -1.11768,59.32852 -1.34122,71.19421"
           inkscape:connector-curvature="0"
           style="fill:#000000;fill-opacity:0;fill-rule:nonzero" />
        <path
           id="path4201"
           d="m 228.13649,346.40683 c -0.22354,11.86569 -1.11768,59.32852 -1.34122,71.19421"
           inkscape:connector-curvature="0"
           style="fill-rule:nonzero;stroke:#666666;stroke-width:24;stroke-linecap:butt;stroke-linejoin:round" />
        <path
           id="path4203"
           d="m 300.55386,346.40683 c 1.13953,11.86569 5.69769,59.32852 6.83722,71.19421"
           inkscape:connector-curvature="0"
           style="fill:#000000;fill-opacity:0;fill-rule:nonzero" />
        <path
           id="path4205"
           d="m 300.55386,346.40683 c 1.13953,11.86569 5.69769,59.32852 6.83722,71.19421"
           inkscape:connector-curvature="0"
           style="fill-rule:nonzero;stroke:#666666;stroke-width:24;stroke-linecap:butt;stroke-linejoin:round" />
        <path
           id="path4207"
           d="m 269.77954,195.95801 c 1.11942,-7.38802 8.05991,-29.77603 6.71652,-44.32808 -1.34338,-14.55206 -12.31409,-35.82022 -14.77691,-42.98426"
           inkscape:connector-curvature="0"
           style="fill:#000000;fill-opacity:0;fill-rule:nonzero" />
        <path
           id="path4209"
           d="m 269.77954,195.95801 c 1.11942,-7.38802 8.05991,-29.77603 6.71652,-44.32808 -1.34338,-14.55206 -12.31409,-35.82022 -14.77691,-42.98426"
           inkscape:connector-curvature="0"
           style="fill-rule:nonzero;stroke:#666666;stroke-width:24;stroke-linecap:butt;stroke-linejoin:round" />
        <path
           id="path4211"
           d="m 339.6299,228.19685 c 12.08969,-3.35828 55.07526,-4.47813 72.53805,-20.14961 17.46283,-15.67148 26.86573,-61.56606 32.23886,-73.87926"
           inkscape:connector-curvature="0"
           style="fill:#000000;fill-opacity:0;fill-rule:nonzero" />
        <path
           id="path4213"
           d="m 339.6299,228.19685 c 12.08969,-3.35828 55.07526,-4.47813 72.53805,-20.14961 17.46283,-15.67148 26.86573,-61.56606 32.23886,-73.87926"
           inkscape:connector-curvature="0"
           style="fill-rule:nonzero;stroke:#666666;stroke-width:24;stroke-linecap:butt;stroke-linejoin:round" />
        <path
           id="path4215"
           d="M 216.04724,226.85301 C 198.58487,222.37576 135.00438,218.12379 111.27296,199.9895 87.541553,181.85521 79.927814,131.70428 73.658786,118.04724"
           inkscape:connector-curvature="0"
           style="fill:#000000;fill-opacity:0;fill-rule:nonzero" />
        <path
           id="path4217"
           d="M 216.04724,226.85301 C 198.58487,222.37576 135.00438,218.12379 111.27296,199.9895 87.541553,181.85521 79.927814,131.70428 73.658786,118.04724"
           inkscape:connector-curvature="0"
           style="fill-rule:nonzero;stroke:#666666;stroke-width:24;stroke-linecap:butt;stroke-linejoin:round" />
        <path
           id="path4219"
           d="m 439.2001,94.39518 c -0.94623,5.534821 -9.28522,25.22923 -5.67731,33.2089 3.60788,7.97966 17.59385,16.86331 27.32471,14.66907 9.73084,-2.19425 25.88364,-23.19547 31.06036,-27.83457"
           inkscape:connector-curvature="0"
           style="fill:#000000;fill-opacity:0;fill-rule:nonzero" />
        <path
           id="path4221"
           d="m 439.2001,94.39518 c -0.94623,5.534821 -9.28522,25.22923 -5.67731,33.2089 3.60788,7.97966 17.59385,16.86331 27.32471,14.66907 9.73084,-2.19425 25.88364,-23.19547 31.06036,-27.83457"
           inkscape:connector-curvature="0"
           style="fill-rule:nonzero;stroke:#64f3d5;stroke-width:24;stroke-linecap:butt;stroke-linejoin:round" />
        <path
           id="path4223"
           d="m 93.065025,80.63384 c -0.762947,5.142448 2.247849,23.38075 -4.577682,30.85468 -6.825539,7.47393 -25.904457,15.9148 -36.375523,13.98892 C 41.640754,123.55156 30.06943,104.19063 25.66095,99.933271"
           inkscape:connector-curvature="0"
           style="fill:#000000;fill-opacity:0;fill-rule:nonzero" />
        <path
           id="path4225"
           d="m 93.065025,80.63384 c -0.762947,5.142448 2.247849,23.38075 -4.577682,30.85468 -6.825539,7.47393 -25.904457,15.9148 -36.375523,13.98892 C 41.640754,123.55156 30.06943,104.19063 25.66095,99.933271"
           inkscape:connector-curvature="0"
           style="fill-rule:nonzero;stroke:#64f3d5;stroke-width:24;stroke-linecap:butt;stroke-linejoin:round" />
        <path
           id="path4227"
           d="M 173.72441,357.13647 192.53114,186.5538 h 151.80385 l 18.80673,170.58267 z"
           inkscape:connector-curvature="0"
           style="fill:#64f3d5;fill-rule:nonzero" />
        <path
           id="path4229"
           d="M 173.72441,357.13647 192.53114,186.5538 h 151.80385 l 18.80673,170.58267 z"
           inkscape:connector-curvature="0"
           style="fill-rule:nonzero;stroke:#64f3d5;stroke-width:12;stroke-linecap:butt;stroke-linejoin:round" />
        <path
           id="path4231"
           d="m 183.86234,440.9923 c -8.04796,-6.22379 18.32567,-27.03534 27.34328,-32.67541 9.01761,-5.64011 18.71443,-7.38892 26.76239,-1.16514 8.04797,6.22379 30.54301,32.86774 21.5254,38.50782 -9.01761,5.6401 -67.5831,1.55652 -75.63107,-4.66727 z"
           inkscape:connector-curvature="0"
           style="fill:#64f3d5;fill-rule:nonzero" />
        <path
           id="path4233"
           d="m 269.87466,447.45374 c -9.01462,-4.71481 13.30234,-29.83099 21.19162,-36.96582 7.88931,-7.13486 17.12952,-10.55808 26.14413,-5.84326 9.01462,4.71481 35.83286,26.99728 27.94358,34.13214 -7.88928,7.13482 -66.26471,13.39175 -75.27933,8.67694 z"
           inkscape:connector-curvature="0"
           style="fill:#64f3d5;fill-rule:nonzero" />
        <path
           id="path4235"
           d="m 140.92181,77.68381 v 0 C 139.01742,55.508853 155.45022,35.9918 177.6255,34.091246 L 314.14059,22.391085 v 0 c 10.64896,-0.91268 21.22504,2.442238 29.40164,9.326706 8.17661,6.884468 13.28394,16.73455 14.19846,27.383339 l 1.95401,22.75251 c 1.90439,22.17495 -14.52844,41.69201 -36.70371,43.59256 L 186.4759,137.14636 c -22.17528,1.90056 -41.69571,-14.53509 -43.6001,-36.71005 z"
           inkscape:connector-curvature="0"
           style="fill:#666666;fill-rule:nonzero" />
        <path
           id="path4237"
           d="m 140.92181,77.68381 v 0 C 139.01742,55.508853 155.45022,35.9918 177.6255,34.091246 L 314.14059,22.391085 v 0 c 10.64896,-0.91268 21.22504,2.442238 29.40164,9.326706 8.17661,6.884468 13.28394,16.73455 14.19846,27.383339 l 1.95401,22.75251 c 1.90439,22.17495 -14.52844,41.69201 -36.70371,43.59256 L 186.4759,137.14636 c -22.17528,1.90056 -41.69571,-14.53509 -43.6001,-36.71005 z"
           inkscape:connector-curvature="0"
           style="fill-rule:nonzero;stroke:#64f3d5;stroke-width:16;stroke-linecap:butt;stroke-linejoin:round" />
        <path
           id="path4239"
           d="m 266.19684,72.54068 v 0 c 0,-14.185452 12.02838,-25.685036 26.86615,-25.685036 v 0 c 7.12534,0 13.95886,2.706093 18.99722,7.522972 5.03839,4.816879 7.86893,11.349968 7.86893,18.162064 v 0 c 0,14.185455 -12.02838,25.685043 -26.86615,25.685043 v 0 c -14.83777,0 -26.86615,-11.499588 -26.86615,-25.685043 z"
           inkscape:connector-curvature="0"
           style="fill:#434343;fill-rule:nonzero" />
        <path
           id="path4241"
           d="m 266.19684,72.54068 v 0 c 0,-14.185452 12.02838,-25.685036 26.86615,-25.685036 v 0 c 7.12534,0 13.95886,2.706093 18.99722,7.522972 5.03839,4.816879 7.86893,11.349968 7.86893,18.162064 v 0 c 0,14.185455 -12.02838,25.685043 -26.86615,25.685043 v 0 c -14.83777,0 -26.86615,-11.499588 -26.86615,-25.685043 z"
           inkscape:connector-curvature="0"
           style="fill-rule:nonzero;stroke:#64f3d5;stroke-width:12;stroke-linecap:butt;stroke-linejoin:round" />
        <path
           id="path4243"
           d="m 182.32545,82.96063 v 0 c 0,-14.185455 12.02838,-25.685043 26.86615,-25.685043 v 0 c 7.12534,0 13.95885,2.706097 18.99722,7.522972 5.03838,4.816879 7.86891,11.349976 7.86891,18.162071 v 0 c 0,14.185455 -12.02838,25.68504 -26.86613,25.68504 v 0 c -14.83777,0 -26.86615,-11.499584 -26.86615,-25.68504 z"
           inkscape:connector-curvature="0"
           style="fill:#434343;fill-rule:nonzero" />
        <path
           id="path4245"
           d="m 182.32545,82.96063 v 0 c 0,-14.185455 12.02838,-25.685043 26.86615,-25.685043 v 0 c 7.12534,0 13.95885,2.706097 18.99722,7.522972 5.03838,4.816879 7.86891,11.349976 7.86891,18.162071 v 0 c 0,14.185455 -12.02838,25.68504 -26.86613,25.68504 v 0 c -14.83777,0 -26.86615,-11.499584 -26.86615,-25.68504 z"
           inkscape:connector-curvature="0"
           style="fill-rule:nonzero;stroke:#64f3d5;stroke-width:12;stroke-linecap:butt;stroke-linejoin:round" />
        <path
           id="path4247"
           d="m 212.18898,253.20998 5.20174,-51.37009 h 103.76974 l 5.20175,51.37009 z"
           inkscape:connector-curvature="0"
           style="fill:#cccccc;fill-rule:nonzero" />
        <path
           id="path4249"
           d="m 212.18898,253.20998 5.20174,-51.37009 h 103.76974 l 5.20175,51.37009 z"
           inkscape:connector-curvature="0"
           style="fill-rule:nonzero;stroke:#666666;stroke-width:8;stroke-linecap:butt;stroke-linejoin:round" />
        <path
           id="path4251"
           d="m 322.67514,234.32773 c -1.7431,-2.20818 -3.68524,-4.40466 -5.93451,-6.56191 -0.46646,-0.44738 -0.23712,-1.15003 -1.07797,-0.87449 -1.40988,0.46202 -0.16889,0.77374 -0.77002,1.4801 -1.17462,1.3802 -2.82224,2.67337 -3.87198,4.0752 -0.19128,0.25544 0.0782,0.95964 -0.50052,0.7779 -4.05627,-1.27386 -3.86148,-3.76582 -5.082,-5.7012 -1.96689,-3.11888 -3.11191,-6.27534 -4.1745,-9.41881 -0.63074,-1.86586 -0.23703,-3.78585 -1.91949,-5.59748 -0.2887,-0.31086 -0.15076,0.30421 -0.26401,0.6127 -0.83829,2.28357 -0.93854,2.27331 -1.63901,4.57119 -0.85904,2.81809 -0.68863,2.83429 -1.47949,5.659 -1.30203,4.65053 -2.58258,9.30318 -3.80051,13.9616 -0.30966,1.18452 -0.0106,2.49678 -1.34747,3.511 -0.77353,0.58682 -2.05286,-1.26374 -2.59601,-1.9556 -0.41879,-0.53343 -3.40604,-5.60074 -3.70151,-6.0659 -1.21872,-1.9187 -1.33319,-1.91287 -2.4805,-3.8351 -1.06091,-1.77747 -0.30825,-2.15912 -0.781,-2.0242 -3.02909,0.86453 -3.87174,2.55972 -5.6705,3.8753 -0.86798,0.63483 -1.0914,1.24935 -1.43,1.1702 -3.18036,-0.74336 -3.21081,-2.65392 -4.27899,-4.035 -0.26233,-0.33915 -0.0943,-0.90465 -0.638,-0.6679 -6.54758,2.85108 -7.712,7.25356 -10.86252,11.014 -1.18911,1.41932 -2.44542,2.82866 -3.43199,4.2818 -0.20749,0.30563 -0.0625,0.90011 -0.4895,0.5989 -2.62323,-1.85029 -2.07889,-4.05354 -2.343,-6.0726 -0.68596,-5.24409 -0.26314,-10.44955 -1.0725,-15.6972 -0.40583,-2.63137 -1.20025,-5.27546 -1.3255,-7.8969 -0.0158,-0.33142 0.66526,-0.94749 -0.16499,-0.99831 -2.75668,-0.1687 -2.71765,1.77633 -3.78951,2.73272 -3.80729,3.39711 -5.67834,7.19653 -7.238,10.96629 -0.58702,1.41887 -1.58737,2.7858 -2.519,4.158 -0.14532,0.21405 0.14362,0.61992 -0.25299,0.4337 -2.31902,-1.08888 -1.22641,-2.699 -1.56201,-4.0484 -0.15082,-0.60647 0.27411,-2.33555 -0.34099,-1.81759 -2.07242,1.74508 -3.13493,3.69641 -4.642,5.55529 -0.16069,0.19819 -2.73128,3.66196 -2.9315,3.5039 -4.25806,-3.36156 -6.00195,-7.04071 -8.6295,-10.5898"
           inkscape:connector-curvature="0"
           style="fill:#000000;fill-opacity:0;fill-rule:evenodd" />
        <path
           id="path4253"
           d="m 322.67514,234.32773 c -1.7431,-2.20818 -3.68524,-4.40466 -5.93451,-6.56191 -0.46646,-0.44738 -0.23712,-1.15003 -1.07797,-0.87449 -1.40988,0.46202 -0.16889,0.77374 -0.77002,1.4801 -1.17462,1.3802 -2.82224,2.67337 -3.87198,4.0752 -0.19128,0.25544 0.0782,0.95964 -0.50052,0.7779 -4.05627,-1.27386 -3.86148,-3.76582 -5.082,-5.7012 -1.96689,-3.11888 -3.11191,-6.27534 -4.1745,-9.41881 -0.63074,-1.86586 -0.23703,-3.78585 -1.91949,-5.59748 -0.2887,-0.31086 -0.15076,0.30421 -0.26401,0.6127 -0.83829,2.28357 -0.93854,2.27331 -1.63901,4.57119 -0.85904,2.81809 -0.68863,2.83429 -1.47949,5.659 -1.30203,4.65053 -2.58258,9.30318 -3.80051,13.9616 -0.30966,1.18452 -0.0106,2.49678 -1.34747,3.511 -0.77353,0.58682 -2.05286,-1.26374 -2.59601,-1.9556 -0.41879,-0.53343 -3.40604,-5.60074 -3.70151,-6.0659 -1.21872,-1.9187 -1.33319,-1.91287 -2.4805,-3.8351 -1.06091,-1.77747 -0.30825,-2.15912 -0.781,-2.0242 -3.02909,0.86453 -3.87174,2.55972 -5.6705,3.8753 -0.86798,0.63483 -1.0914,1.24935 -1.43,1.1702 -3.18036,-0.74336 -3.21081,-2.65392 -4.27899,-4.035 -0.26233,-0.33915 -0.0943,-0.90465 -0.638,-0.6679 -6.54758,2.85108 -7.712,7.25356 -10.86252,11.014 -1.18911,1.41932 -2.44542,2.82866 -3.43199,4.2818 -0.20749,0.30563 -0.0625,0.90011 -0.4895,0.5989 -2.62323,-1.85029 -2.07889,-4.05354 -2.343,-6.0726 -0.68596,-5.24409 -0.26314,-10.44955 -1.0725,-15.6972 -0.40583,-2.63137 -1.20025,-5.27546 -1.3255,-7.8969 -0.0158,-0.33142 0.66526,-0.94749 -0.16499,-0.99831 -2.75668,-0.1687 -2.71765,1.77633 -3.78951,2.73272 -3.80729,3.39711 -5.67834,7.19653 -7.238,10.96629 -0.58702,1.41887 -1.58737,2.7858 -2.519,4.158 -0.14532,0.21405 0.14362,0.61992 -0.25299,0.4337 -2.31902,-1.08888 -1.22641,-2.699 -1.56201,-4.0484 -0.15082,-0.60647 0.27411,-2.33555 -0.34099,-1.81759 -2.07242,1.74508 -3.13493,3.69641 -4.642,5.55529 -0.16069,0.19819 -2.73128,3.66196 -2.9315,3.5039 -4.25806,-3.36156 -6.00195,-7.04071 -8.6295,-10.5898"
           inkscape:connector-curvature="0"
           style="fill-rule:evenodd;stroke:#ffffff;stroke-width:2;stroke-linecap:butt;stroke-linejoin:round" />
        <path
           id="path4255"
           d="m 212.18898,253.20998 5.20174,-51.37009 h 103.76974 l 5.20175,51.37009 z"
           inkscape:connector-curvature="0"
           style="fill:#000000;fill-opacity:0;fill-rule:nonzero" />
        <path
           id="path4257"
           d="m 212.18898,253.20998 5.20174,-51.37009 h 103.76974 l 5.20175,51.37009 z"
           inkscape:connector-curvature="0"
           style="fill-rule:nonzero;stroke:#666666;stroke-width:8;stroke-linecap:butt;stroke-linejoin:round" />
        <path
           id="path4259"
           d="m 207.29921,279.08136 v 0 c 0,-5.24454 4.36435,-9.49606 9.74803,-9.49606 v 0 c 2.58534,0 5.06479,1.00049 6.8929,2.78134 1.82811,1.78085 2.85513,4.19623 2.85513,6.71472 v 0 c 0,5.24454 -4.36433,9.49606 -9.74803,9.49606 v 0 c -5.38368,0 -9.74803,-4.25152 -9.74803,-9.49606 z"
           inkscape:connector-curvature="0"
           style="fill:#666666;fill-rule:nonzero" />
        <path
           id="path4261"
           d="m 236.05774,279.08136 v 0 c 0,-5.24454 4.36435,-9.49606 9.74803,-9.49606 v 0 c 2.58534,0 5.06479,1.00049 6.8929,2.78134 1.82811,1.78085 2.85513,4.19623 2.85513,6.71472 v 0 c 0,5.24454 -4.36433,9.49606 -9.74803,9.49606 v 0 c -5.38368,0 -9.74803,-4.25152 -9.74803,-9.49606 z"
           inkscape:connector-curvature="0"
           style="fill:#666666;fill-rule:nonzero" />
      </g>
    </g>
    <g
       id="g4315"
       transform="matrix(0.04267473,0,0,-0.04267473,38.065053,235.37526)"
       style="fill:#000000;stroke:none">
      <title
         id="title4309">A Simple Maze Puzzle, by Adam Stanislav</title>
      <path
         id="path4311"
         d="M 0,165 V 10 h 105 105 v 5 5 H 170 130 V 50 80 H 105 80 V 60 40 H 60 40 v -5 -5 h 25 25 v 20 20 h 15 15 V 45 20 h -5 -5 v 20 20 h -5 -5 V 40 20 H 55 10 v 15 15 h 5 5 V 40 30 h 5 5 v 10 10 h 20 20 v 20 20 h 35 35 V 80 70 h 10 10 V 60 50 h 20 20 v -5 -5 h -25 -25 v 10 10 h -5 -5 V 45 30 h 35 35 v 40 40 h 20 20 v 10 10 h 15 15 V 105 80 h -5 -5 v 20 20 h -5 -5 v -10 -10 h -20 -20 v -5 -5 h 20 20 V 80 70 h 15 15 v 35 35 h -20 -20 v 15 15 h 10 10 v 5 5 h -15 -15 v -30 -30 h -25 -25 v 15 15 h 10 10 v 5 5 h -15 -15 v -25 -25 h 10 10 V 85 60 h -15 -15 v 10 10 h -10 -10 v 10 10 h -10 -10 v 15 15 h 10 10 v 5 5 h -25 -25 v -5 -5 h 10 10 V 115 100 H 80 40 V 95 90 H 50 60 V 75 60 H 35 10 v 45 45 h 20 20 v 20 20 h 5 5 V 165 140 H 40 20 V 105 70 h 15 15 v 5 5 H 40 30 v 15 15 h 40 40 v 5 5 H 100 90 v 15 15 h 35 35 v -15 -15 h -10 -10 v -5 -5 h 10 10 V 100 90 h 10 10 V 80 70 h 5 5 v 15 15 h -10 -10 v 35 35 h 25 25 v -15 -15 h -10 -10 v -5 -5 h 15 15 v 30 30 h 25 25 v -15 -15 h -10 -10 v -5 -5 h 15 15 v 25 25 h -10 -10 v 50 50 h -25 -25 v -5 -5 h 20 20 v -25 -25 h -15 -15 v 10 10 h -5 -5 v -10 -10 h -10 -10 v -5 -5 h 20 20 v -10 -10 h 5 5 v 10 10 h 5 5 v -15 -15 h -30 -30 v -5 -5 h 10 10 v -5 -5 h -25 -25 v 10 10 h -5 -5 V 180 160 H 125 90 v 20 20 H 85 80 V 160 120 H 55 30 v 5 5 h 20 20 v 35 35 H 60 50 v 45 45 h 25 25 V 275 260 H 90 80 v -15 -15 h 45 45 v 15 15 h -25 -25 v -5 -5 h 20 20 v -5 -5 H 125 90 v 5 5 h 10 10 v 20 20 h 20 20 v 5 5 H 95 40 V 280 260 H 30 20 v -5 -5 H 30 40 V 225 200 H 30 20 v -15 -15 h 5 5 v 10 10 h 5 5 V 175 160 H 25 10 v 35 35 h 5 5 v -10 -10 h 5 5 v 15 15 H 20 10 v 35 35 h 5 5 v -20 -20 h 5 5 v 20 20 h 60 60 v 5 5 H 75 0 Z"
         inkscape:connector-curvature="0" />
      <path
         id="path4313"
         d="m 160,315 v -5 h 20 20 v -25 -25 h -5 -5 v 10 10 h -10 -10 v 5 5 h 10 10 v 5 5 h -15 -15 v -10 -10 h -20 -20 v -5 -5 h 30 30 v -25 -25 h -20 -20 v -20 -20 h -15 -15 v 15 15 h 5 5 v -10 -10 h 5 5 v 15 15 H 100 70 v 25 25 h 10 10 v 5 5 H 75 60 v -35 -35 h 20 20 v -20 -20 h 25 25 v 20 20 h 15 15 v -10 -10 h 5 5 v 10 10 h 20 20 v 5 5 h -20 -20 v 15 15 h 10 10 v 10 10 h 15 15 v -10 -10 h 5 5 v 15 15 h -20 -20 v 15 15 h 45 45 v -45 -45 h -5 -5 v 40 40 h -5 -5 v -45 -45 h 10 10 V 135 60 H 275 250 V 70 80 H 235 220 V 55 30 h 5 5 v 20 20 h 5 5 V 60 50 h 20 20 V 40 30 h 5 5 v 10 10 h 5 5 V 35 20 h -25 -25 v 5 5 h 10 10 v 5 5 H 255 240 V 30 20 h -10 -10 v -5 -5 h 45 45 v 155 155 h -75 -75 z"
         inkscape:connector-curvature="0" />
    </g>
    <text
       xml:space="preserve"
       style="font-style:normal;font-weight:normal;font-size:10.58333302px;line-height:1.25;font-family:sans-serif;letter-spacing:0px;word-spacing:0px;fill:#000000;fill-opacity:1;stroke:none;stroke-width:0.26458332"
       x="29.856512"
       y="241.15166"
       id="text8001"><tspan
         sodipodi:role="line"
         id="tspan7999"
         x="29.856512"
         y="241.15166"
         style="font-style:italic;font-variant:normal;font-weight:normal;font-stretch:normal;font-size:4.58611107px;font-family:sans-serif;-inkscape-font-specification:'sans-serif Italic';stroke-width:0.26458332">Environment</tspan></text>
    <text
       xml:space="preserve"
       style="font-style:normal;font-weight:normal;font-size:10.58333302px;line-height:1.25;font-family:sans-serif;letter-spacing:0px;word-spacing:0px;fill:#000000;fill-opacity:1;stroke:none;stroke-width:0.26458332"
       x="37.928112"
       y="294.59744"
       id="text8001-8"><tspan
         sodipodi:role="line"
         id="tspan7999-4"
         x="37.928112"
         y="294.59744"
         style="font-style:italic;font-variant:normal;font-weight:normal;font-stretch:normal;font-size:4.58611107px;font-family:sans-serif;-inkscape-font-specification:'sans-serif Italic';stroke-width:0.26458332">Agent</tspan></text>
    <path
       style="fill:none;stroke:#000000;stroke-width:0.25;stroke-linecap:butt;stroke-linejoin:miter;stroke-miterlimit:3.71428561;stroke-dasharray:none;stroke-opacity:1;marker-end:url(#Arrow2Lend)"
       d="M 63.868717,281.64426 C 84.825968,281.88497 79.230218,231.93175 53.29422,231.67117"
       id="path8021"
       inkscape:connector-curvature="0"
       sodipodi:nodetypes="cc" />
    <g
       style="clip-rule:evenodd;fill-rule:evenodd;image-rendering:optimizeQuality;shape-rendering:geometricPrecision;text-rendering:geometricPrecision"
       id="g9313"
       transform="matrix(-0.00313558,0,0,0.00313558,15.08411,246.24198)">
      <g
         id="Layer_x0020_1">
        <path
           id="path9288"
           d="M 310,3745 C 126,3435 21,3073 21,2687 c 0,-386 106,-748 289,-1058 87,332 134,688 134,1058 0,370 -47,726 -134,1058 z"
           class="fil1"
           inkscape:connector-curvature="0"
           style="fill:#0000eb;fill-opacity:1" />
        <path
           id="path9290"
           d="M 4178,2686 C 2306,2686 496,934 21,21"
           class="fil2 str0"
           inkscape:connector-curvature="0"
           style="fill:none;stroke:#000000;stroke-width:42.33000183;stroke-linecap:round;stroke-linejoin:round" />
        <path
           id="path9292"
           d="M 4178,2686 C 2306,2686 496,4438 21,5351"
           class="fil2 str0"
           inkscape:connector-curvature="0"
           style="fill:none;stroke:#000000;stroke-width:42.33000183;stroke-linecap:round;stroke-linejoin:round" />
        <path
           id="path9294"
           d="M 822,4326 C 335,3946 21,3353 21,2687 21,2021 334,1428 822,1048 c 815,813 2071,1639 3356,1639 -1285,0 -2541,826 -3356,1639 z"
           class="fil2 str1"
           inkscape:connector-curvature="0"
           style="fill:none;stroke:#000000;stroke-width:42.33000183" />
        <path
           id="path9288-4"
           d="M 83.408285,3109.4521 C 17.387778,2986.4517 21.000033,2840.1554 21.000033,2687.0002 c 0,-153.1552 -5.917123,-291.4605 59.744574,-414.4609 31.216223,131.7294 72.053243,267.6541 72.053243,414.4609 0,146.8068 -38.17334,290.7225 -69.389565,422.4519 z"
           class="fil1"
           inkscape:connector-curvature="0"
           style="clip-rule:evenodd;fill:#000000;fill-opacity:1;fill-rule:evenodd;stroke-width:0.37731388;image-rendering:optimizeQuality;shape-rendering:geometricPrecision;text-rendering:geometricPrecision"
           sodipodi:nodetypes="cscsc" />
      </g>
    </g>
    <text
       xml:space="preserve"
       style="font-style:normal;font-weight:normal;font-size:10.58333302px;line-height:1.25;font-family:sans-serif;letter-spacing:0px;word-spacing:0px;fill:#000000;fill-opacity:1;stroke:none;stroke-width:0.26458332"
       x="1.5191381"
       y="266.55154"
       id="text8001-8-9"><tspan
         sodipodi:role="line"
         id="tspan7999-4-2"
         x="1.5191381"
         y="266.55154"
         style="font-style:italic;font-variant:normal;font-weight:normal;font-stretch:normal;font-size:4.58611107px;font-family:sans-serif;-inkscape-font-specification:'sans-serif Italic';stroke-width:0.26458332">Interpreter</tspan></text>
    <path
       style="fill:none;stroke:#000000;stroke-width:0.25;stroke-linecap:butt;stroke-linejoin:miter;stroke-miterlimit:3.71428561;stroke-dasharray:none;stroke-opacity:1;marker-end:url(#marker12943)"
       d="m 26.445483,253.9555 c 11.879877,-0.13369 17.83976,2.89932 17.60595,15.42874"
       id="path9348-8-6"
       inkscape:connector-curvature="0"
       sodipodi:nodetypes="cc" />
    <text
       xml:space="preserve"
       style="font-style:normal;font-weight:normal;font-size:10.58333302px;line-height:1.25;font-family:sans-serif;letter-spacing:0px;word-spacing:0px;fill:#000000;fill-opacity:1;stroke:none;stroke-width:0.26458332"
       x="188.98167"
       y="169.38864"
       id="text8001-8-6"
       transform="rotate(40)"><tspan
         sodipodi:role="line"
         id="tspan7999-4-4"
         x="188.98167"
         y="169.38864"
         style="font-size:4.58611107px;stroke-width:0.26458332">Reward</tspan></text>
    <text
       xml:space="preserve"
       style="font-style:normal;font-weight:normal;font-size:10.58333302px;line-height:1.25;font-family:sans-serif;letter-spacing:0px;word-spacing:0px;fill:#000000;fill-opacity:1;stroke:none;stroke-width:0.26458332"
       x="80.485214"
       y="275.0433"
       id="text8001-8-6-3"
       transform="rotate(15)"><tspan
         sodipodi:role="line"
         id="tspan7999-4-4-8"
         x="80.485214"
         y="275.0433"
         style="font-size:4.58611107px;stroke-width:0.26458332">States</tspan></text>
    <path
       style="fill:none;stroke:#000000;stroke-width:0.25;stroke-linecap:butt;stroke-linejoin:miter;stroke-miterlimit:3.71428561;stroke-dasharray:none;stroke-opacity:1;marker-end:url(#Arrow2Lend-0)"
       d="m 63.873842,281.6406 c 17.008975,0.20675 16.51542,-34.60078 1.845275,-47.83198 -3.392901,-3.06011 -7.54411,-4.96608 -12.412481,-5.01784"
       id="path8021-5"
       inkscape:connector-curvature="0"
       sodipodi:nodetypes="csc" />
    <path
       style="fill:none;stroke:#000000;stroke-width:0.25;stroke-linecap:butt;stroke-linejoin:miter;stroke-miterlimit:3.71428561;stroke-dasharray:none;stroke-opacity:1;marker-end:url(#Arrow2Lend-0-0)"
       d="m 63.878826,281.63705 c 16.997559,0.218 16.504336,-36.48436 1.844036,-50.43582 -3.390624,-3.2267 -7.539047,-5.23642 -12.404151,-5.291"
       id="path8021-5-9"
       inkscape:connector-curvature="0"
       sodipodi:nodetypes="csc" />
    <path
       style="fill:none;stroke:#000000;stroke-width:0.25;stroke-linecap:butt;stroke-linejoin:miter;stroke-opacity:1;stroke-miterlimit:3.71428561;stroke-dasharray:none;marker-end:url(#marker4841)"
       d="m 53.390449,281.6481 h 10.473"
       id="path224"
       inkscape:connector-curvature="0" />
    <text
       xml:space="preserve"
       style="font-style:normal;font-variant:normal;font-weight:normal;font-stretch:normal;font-size:10.58333302px;line-height:0.40000001;font-family:sans-serif;-inkscape-font-specification:sans-serif;letter-spacing:0px;word-spacing:0px;fill:#000000;fill-opacity:1;stroke:none;stroke-width:0.26458332"
       x="52.380844"
       y="286.77539"
       id="text8001-3-8"><tspan
         sodipodi:role="line"
         x="52.380844"
         y="286.77539"
         style="font-style:normal;font-variant:normal;font-weight:normal;font-stretch:normal;font-size:4.58611107px;line-height:0.40000001;font-family:sans-serif;-inkscape-font-specification:sans-serif;stroke-width:0.26458332"
         id="tspan111-9">Action</tspan></text>
    <path
       style="fill:none;stroke:#000000;stroke-width:0.25;stroke-linecap:butt;stroke-linejoin:miter;stroke-miterlimit:3.71428561;stroke-dasharray:none;stroke-opacity:1;marker-end:url(#marker12885)"
       d="M 35.435578,225.26163 C 21.721691,225.12847 6.9999911,230.85479 7.1063689,245.17526"
       id="path9348-6-4"
       inkscape:connector-curvature="0"
       sodipodi:nodetypes="cc" />
    <path
       style="fill:none;stroke:#000000;stroke-width:0.25;stroke-linecap:butt;stroke-linejoin:miter;stroke-miterlimit:3.71428561;stroke-dasharray:none;stroke-opacity:1;marker-end:url(#marker12885-3)"
       d="M 35.436087,228.45521 C 23.098822,228.34301 9.8549086,233.16764 9.950608,245.23314"
       id="path9348-6-4-7"
       inkscape:connector-curvature="0"
       sodipodi:nodetypes="cc" />
    <path
       style="fill:none;stroke:#000000;stroke-width:0.25;stroke-linecap:butt;stroke-linejoin:miter;stroke-miterlimit:3.71428561;stroke-dasharray:none;stroke-opacity:1;marker-end:url(#marker12885-3-5)"
       d="m 35.436099,231.64855 c -10.961182,-0.0912 -22.727887,3.83192 -22.642861,13.64302"
       id="path9348-6-4-7-5"
       inkscape:connector-curvature="0"
       sodipodi:nodetypes="cc" />
    <path
       style="fill:none;stroke:#000000;stroke-width:0.25;stroke-linecap:butt;stroke-linejoin:miter;stroke-miterlimit:3.71428561;stroke-dasharray:none;stroke-opacity:1;marker-start:url(#Arrow2Lstart-2)"
       d="m 34.487798,279.94011 c -9.835487,0.10337 -16.354725,-2.24374 -16.161151,-11.94018"
       id="path9348-8-0"
       inkscape:connector-curvature="0"
       sodipodi:nodetypes="cc" />
    <path
       style="fill:none;stroke:#000000;stroke-width:0.25;stroke-linecap:butt;stroke-linejoin:miter;stroke-miterlimit:3.71428561;stroke-dasharray:none;stroke-opacity:1;marker-start:url(#Arrow2Lstart-2-9)"
       d="m 34.373803,282.53717 c -12.885279,0.12586 -21.426007,-2.73178 -21.17241,-14.53724"
       id="path9348-8-0-6"
       inkscape:connector-curvature="0"
       sodipodi:nodetypes="cc" />
    <path
       style="fill:none;stroke:#000000;stroke-width:0.25;stroke-linecap:butt;stroke-linejoin:miter;stroke-miterlimit:3.71428561;stroke-dasharray:none;stroke-opacity:1;marker-start:url(#Arrow2Lstart-2-9-0)"
       d="M 34.260156,285.13533 C 18.32481,285.28368 7.762412,281.91532 8.076038,267.99993"
       id="path9348-8-0-6-2"
       inkscape:connector-curvature="0"
       sodipodi:nodetypes="cc" />
    <path
       style="fill:none;stroke:#000000;stroke-width:0.25;stroke-linecap:butt;stroke-linejoin:miter;stroke-opacity:1;stroke-miterlimit:3.71428561;stroke-dasharray:none"
       d="m 16.419777,248.27897 c 5.585389,-0.0852 3.791321,5.62886 10.025706,5.67653"
       id="path50999"
       inkscape:connector-curvature="0"
       sodipodi:nodetypes="cc" />
    <path
       style="fill:none;stroke:#000000;stroke-width:0.25;stroke-linecap:butt;stroke-linejoin:miter;stroke-opacity:1;stroke-miterlimit:3.71428561;stroke-dasharray:none"
       d="m 26.445483,253.9555 c -5.585389,-0.0852 -3.791321,5.62886 -10.025706,5.67653"
       id="path50999-0"
       inkscape:connector-curvature="0"
       sodipodi:nodetypes="cc" />
    <path
       style="fill:none;stroke:#000000;stroke-width:0.25;stroke-linecap:butt;stroke-linejoin:miter;stroke-opacity:1;stroke-miterlimit:3.71428561;stroke-dasharray:none;marker-end:url(#marker1232)"
       d="M 16.419776,253.9555 H 26.445483"
       id="path51035"
       inkscape:connector-curvature="0" />
    <flowRoot
       xml:space="preserve"
       id="flowRoot1308"
       style="font-style:normal;font-weight:normal;font-size:40px;line-height:0.5ex;font-family:sans-serif;letter-spacing:0px;word-spacing:0px;fill:#000000;fill-opacity:1;stroke:none"
       transform="matrix(0,0.26458333,-0.26458333,0,96.950671,233.37654)"><flowRegion
         id="flowRegion1310"
         style="line-height:0.5ex"><rect
           id="rect1312"
           width="63.415466"
           height="38.99884"
           x="82.745338"
           y="83.136658"
           style="line-height:0.5ex" /></flowRegion><flowPara
         id="flowPara1314"
         style="font-size:14.66666698px;line-height:0.5ex">Partial Actions</flowPara></flowRoot>    <flowRoot
       xml:space="preserve"
       id="flowRoot1308-3"
       style="font-style:normal;font-weight:normal;font-size:40px;line-height:0.5ex;font-family:sans-serif;letter-spacing:0px;word-spacing:0px;fill:#000000;fill-opacity:1;stroke:none"
       transform="matrix(0.22653784,0.13669289,-0.13669289,0.22653784,12.409261,208.29485)"><flowRegion
         id="flowRegion1310-6"
         style="line-height:0.5ex"><rect
           id="rect1312-7"
           width="63.415466"
           height="38.99884"
           x="82.745338"
           y="83.136658"
           style="line-height:0.5ex" /></flowRegion><flowPara
         id="flowPara1314-5"
         style="font-size:14.66666698px;line-height:0.5ex">Partial Rewards</flowPara></flowRoot>    <flowRoot
       xml:space="preserve"
       id="flowRoot1308-3-3"
       style="font-style:normal;font-weight:normal;font-size:40px;line-height:0.5ex;font-family:sans-serif;letter-spacing:0px;word-spacing:0px;fill:#000000;fill-opacity:1;stroke:none"
       transform="matrix(0.21047047,-0.16033254,0.16033254,0.21047047,-29.786655,224.43515)"><flowRegion
         id="flowRegion1310-6-5"
         style="line-height:0.5ex"><rect
           id="rect1312-7-6"
           width="63.415466"
           height="38.99884"
           x="82.745338"
           y="83.136658"
           style="line-height:0.5ex" /></flowRegion><flowPara
         id="flowPara1314-5-2"
         style="font-size:14.66666698px;line-height:0.5ex">Partial Rewards</flowPara></flowRoot>  </g>
</svg>
